<?xml version="1.0" encoding="UTF-8" standalone="no"?>
<svg
   xmlns:dc="http://purl.org/dc/elements/1.1/"
   xmlns:cc="http://creativecommons.org/ns#"
   xmlns:rdf="http://www.w3.org/1999/02/22-rdf-syntax-ns#"
   xmlns:svg="http://www.w3.org/2000/svg"
   xmlns="http://www.w3.org/2000/svg"
   xmlns:sodipodi="http://sodipodi.sourceforge.net/DTD/sodipodi-0.dtd"
   xmlns:inkscape="http://www.inkscape.org/namespaces/inkscape"
   viewBox="0 -256 1850 1850"
   id="svg3025"
   version="1.1"
   inkscape:version="1.0.2 (e86c870879, 2021-01-15)"
   width="100%"
   height="100%"
   sodipodi:docname="external_link.svg">
  <metadata
     id="metadata3035">
    <rdf:RDF>
      <cc:Work
         rdf:about="">
        <dc:format>image/svg+xml</dc:format>
        <dc:type
           rdf:resource="http://purl.org/dc/dcmitype/StillImage" />
      </cc:Work>
    </rdf:RDF>
  </metadata>
  <defs
     id="defs3033" />
  <sodipodi:namedview
     pagecolor="#ffffff"
     bordercolor="#666666"
     borderopacity="1"
     objecttolerance="10"
     gridtolerance="10"
     guidetolerance="10"
     inkscape:pageopacity="0"
     inkscape:pageshadow="2"
     inkscape:window-width="747"
     inkscape:window-height="1005"
     id="namedview3031"
     showgrid="false"
     inkscape:zoom="1.0535714"
     inkscape:cx="1701.4359"
     inkscape:cy="199.17859"
     inkscape:window-x="0"
     inkscape:window-y="0"
     inkscape:window-maximized="0"
     inkscape:current-layer="svg3025"
     inkscape:document-rotation="0" />
  <g
     transform="matrix(1,0,0,-1,30.372881,1426.9492)"
     id="g3027">
    <path
       d="M 1408,608 V 288 Q 1408,169 1323.5,84.5 1239,0 1120,0 H 288 Q 169,0 84.5,84.5 0,169 0,288 v 832 Q 0,1239 84.5,1323.5 169,1408 288,1408 h 704 q 14,0 23,-9 9,-9 9,-23 v -64 q 0,-14 -9,-23 -9,-9 -23,-9 H 288 q -66,0 -113,-47 -47,-47 -47,-113 V 288 q 0,-66 47,-113 47,-47 113,-47 h 832 q 66,0 113,47 47,47 47,113 v 320 q 0,14 9,23 9,9 23,9 h 64 q 14,0 23,-9 9,-9 9,-23 z m 384,864 V 960 q 0,-26 -19,-45 -19,-19 -45,-19 -26,0 -45,19 L 1507,1091 855,439 q -10,-10 -23,-10 -13,0 -23,10 L 695,553 q -10,10 -10,23 0,13 10,23 l 652,652 -176,176 q -19,19 -19,45 0,26 19,45 19,19 45,19 h 512 q 26,0 45,-19 19,-19 19,-45 z"
       id="path3029"
       inkscape:connector-curvature="0"
       style="fill:#000000" />
  </g>
  <path
     style="fill:#000000;stroke-width:7.59322"
     d="m 783.84169,1182.4939 c -36.4553,-36.625 -66.28237,-69.955 -66.28237,-74.0667 0,-4.1116 148.63729,-156.08353 330.30508,-337.71533 181.6678,-181.63179 330.3051,-333.50979 330.3051,-337.50665 0,-3.99688 -42.7119,-50.43405 -94.9153,-103.19373 -78.4177,-79.2534 -94.8732,-99.77267 -94.6737,-118.05383 0.2743,-25.13372 11.2439,-42.22955 35.3271,-55.05634 11.7041,-6.23367 95.1227,-8.83352 283.4315,-8.83352 h 266.8461 l 22.1955,22.19557 22.1956,22.19557 v 273.51659 273.51661 l -17.7814,20.67201 c -12.5216,14.55725 -25.03,20.67201 -42.287,20.67201 -21.2731,0 -37.4634,-12.92881 -122.732,-98.0081 l -98.2261,-98.0081 -332.1967,332.13239 c -182.7082,182.67285 -337.37902,332.13235 -343.7129,332.13235 -6.33388,0 -41.34321,-29.9658 -77.79851,-66.5908 z"
     id="path74"
     transform="translate(0,-256)" />
  <path
     style="fill:#000000;stroke-width:7.59322"
     d="M 262.96643,1673.8822 C 180.57011,1657.2757 95.899329,1589.1206 58.490816,1509.2911 L 37.966111,1465.4915 V 979.52542 493.55933 L 58.167168,450.46669 C 96.877905,367.88945 169.53556,307.18803 253.25328,287.48312 c 58.96915,-13.87975 775.52842,-14.98615 789.29592,-1.21871 11.8305,11.83054 11.8305,91.43726 0,103.2678 -6.8356,6.83558 -101.20682,9.12244 -377.76276,9.15421 -219.97039,0.0251 -379.56944,3.0755 -395.72334,7.563 -14.88988,4.13636 -41.10245,19.52976 -58.25015,34.20756 -57.47318,49.1949 -55.89364,32.9031 -53.48972,551.70784 l 2.13441,460.63938 23.11683,32.9199 c 12.71426,18.106 38.34138,41.4623 56.94915,51.903 l 33.83232,18.9831 h 463.18643 c 421.52073,0 465.30493,-1.1605 486.73723,-12.9003 27.7164,-15.182 68.816,-60.1546 80.9274,-88.5534 5.2372,-12.2806 9.7159,-92.0581 11.5688,-206.0718 1.8207,-112.0274 6.1404,-189.8097 10.8587,-195.5254 10.0441,-12.1674 83.4961,-12.4592 95.5757,-0.3796 6.6154,6.6154 9.1118,62.7073 9.1118,204.7321 0,181.7749 -1.16,198.7305 -16.3903,239.5661 -22.6757,60.7981 -98.6145,136.8704 -162.0503,162.3351 l -45.5594,18.2887 -455.59318,1.2328 c -250.57627,0.6781 -470.51935,-1.7755 -488.76239,-5.4523 z"
     id="path76"
     transform="translate(0,-256)" />
  <path
     style="fill:#000000;stroke-width:0.671152"
     d="m 1194.0202,931.53002 v -3.08391 l 152.5193,-152.21813 c 83.8856,-83.71997 161.1804,-160.83286 171.7661,-171.36199 l 19.2468,-19.14386 70.352,69.78984 c 72.6026,72.02237 83.2676,82.43165 97.5337,95.19508 27.8436,24.91064 39.7716,31.31902 56.3768,30.28869 15.7846,-0.97942 26.3147,-6.35246 38.2254,-19.50467 l 3.4439,-3.80286 -0.1967,5.19418 -0.1967,5.19418 -5.646,4.56727 c -6.6411,5.37223 -15.5816,9.96606 -23.5491,12.09999 -7.9932,2.1408 -23.2594,2.12294 -31.2086,-0.0365 -6.3883,-1.7354 -13.439,-4.97693 -19.2561,-8.85286 -2.8525,-1.90065 -33.8021,-32.35961 -94.8456,-93.34201 -49.8362,-49.78639 -90.9105,-90.52072 -91.2762,-90.52072 -0.3656,0 -77.7553,77.08999 -171.9769,171.3111 l -171.3121,171.31111 z"
     id="path78"
     transform="translate(0,-256)" />
  <path
     style="fill:#000000;stroke-width:0.671152"
     d="M 1194.0202,776.16486 V 624.4273 l 32.0475,-32.53545 c 95.1871,-96.6364 147.2286,-150.65294 151.6591,-157.41469 0.9537,-1.45561 0.9013,-1.75594 -0.739,-4.2346 -6.4505,-9.74746 -39.1561,-45.01757 -86.9929,-93.81418 -62.2504,-63.49952 -81.284,-84.30632 -92.2087,-100.79909 l -3.766,-5.68543 v -21.84708 -21.84709 l 2.5168,-4.32441 c 3.0554,-5.24983 11.1312,-13.90755 16.611,-17.80795 8.5694,-6.09947 12.1016,-7.74964 19.342,-9.03614 29.5962,-5.25872 109.2203,-6.69695 371.5693,-6.71158 l 170.1022,-0.009 14.6324,14.57739 14.6325,14.57739 V 467.0341 756.5533 l -3.8592,4.41168 c -4.7292,5.40635 -12.4434,11.63929 -17.6719,14.27866 -7.1158,3.59204 -13.3905,4.9583 -22.765,4.95684 -7.3687,-10e-4 -8.9859,-0.21616 -13.2927,-1.76739 -12.5949,-4.53639 -27.5,-16.15969 -58.8827,-45.91782 -7.7372,-7.33665 -44.5099,-43.67831 -81.717,-80.75927 l -67.6494,-67.4199 -171.7842,171.78316 -171.7841,171.78313 z"
     id="path80"
     transform="translate(0,-256)" />
  <path
     style="fill:#000000;stroke-width:0.671152"
     d="M 1194.0202,776.13596 V 624.36951 l 30.3696,-30.82524 c 94.1195,-95.53151 149.0202,-152.47878 153.3087,-159.02397 0.9882,-1.50814 0.9484,-1.76832 -0.6292,-4.11757 -6.9023,-10.27803 -39.6879,-45.59575 -90.0945,-97.05304 -61.5957,-62.87945 -78.0074,-80.86181 -89.185,-97.7204 l -3.7696,-5.68543 v -21.84708 -21.84709 l 2.5168,-4.32943 c 5.0064,-8.61195 17.6974,-19.90768 27.688,-24.64392 8.0671,-3.82434 37.5562,-5.96623 105.3679,-7.65322 16.0068,-0.39821 119.7923,-0.86236 236.5041,-1.05768 l 207.9802,-0.34808 14.6746,14.66322 14.6746,14.66323 v 289.78348 289.78349 l -6.9179,6.8715 c -9.5405,9.47646 -17.1158,13.71973 -27.9414,15.65108 -18.6424,3.32595 -30.2275,-1.5825 -56.0688,-23.75556 -16.6369,-14.27525 -35.6531,-32.73254 -106.9213,-103.77896 l -67.9814,-67.76987 -171.7877,171.78672 -171.7877,171.7867 z"
     id="path82"
     transform="translate(0,-256)" />
  <path
     style="fill:#000000;stroke-width:0.671152"
     d="M 1194.0202,776.05401 V 624.2056 l 26.6654,-27.01315 c 94.4168,-95.64792 152.4398,-155.77699 157.0633,-162.76415 0.9312,-1.40721 0.8624,-1.72815 -0.9235,-4.3059 -7.6935,-11.10485 -38.9215,-44.68062 -92.1997,-99.13139 -59.0755,-60.37567 -75.7521,-78.67886 -86.8451,-95.31604 l -3.7604,-5.63974 v -21.89277 -21.89277 l 2.5168,-4.32943 c 3.2632,-5.61329 11.7023,-14.43687 17.8213,-18.63323 10.8541,-7.44365 12.9832,-8.12682 30.6694,-9.84092 40.7573,-3.95007 119.5275,-5.0649 358.7366,-5.07721 l 170.4784,-0.009 14.5918,14.60315 14.5919,14.60316 V 467.3386 757.11078 l -6.9179,6.8715 c -9.5405,9.47646 -17.1158,13.71973 -27.9414,15.65108 -18.6441,3.32625 -30.2396,-1.58733 -56.0688,-23.75911 -16.9369,-14.53858 -34.8504,-31.92152 -106.2499,-103.10303 l -68.6524,-68.4427 -171.7879,171.78695 -171.7879,171.78692 z"
     id="path84"
     transform="translate(0,-256)" />
  <path
     style="fill:#000000;stroke-width:0.671152"
     d="m 1284.5383,338.4365 c -47.8197,-47.87998 -87.7488,-88.05924 -88.7315,-89.28725 -1.7033,-2.12857 -1.7866,-2.59522 -1.7866,-10.00223 v -7.76949 l 3.7116,5.54514 c 10.251,15.31526 26.714,33.5368 72.7921,80.56781 14.647,14.94992 32.7741,33.52405 40.2823,41.27586 28.1951,29.10967 61.7368,65.66477 60.9623,66.43924 -0.157,0.15699 -39.4106,-38.88909 -87.2302,-86.76908 z"
     id="path86"
     transform="translate(0,-256)" />
  <path
     style="fill:#000000;stroke-width:0.671152"
     d="m 1194.0523,619.50805 -0.032,-3.69227 91.5847,-91.58292 c 50.3717,-50.37061 91.7584,-91.40938 91.9705,-91.19726 1.0579,1.05795 -28.5681,32.24348 -99.3625,104.5928 -22.9362,23.43999 -51.2481,52.28276 -62.9154,64.09503 l -21.2131,21.47687 z"
     id="path88"
     transform="translate(0,-256)" />
  <path
     style="fill:#000000;stroke-width:0.335576"
     d="m 1818.8226,379.37516 v -186.9988 l -21.3929,-21.42607 c -13.1369,-13.15715 -21.0692,-21.33603 -20.5541,-21.19279 1.6093,0.44747 6.8968,2.61331 9.218,3.77584 5.8222,2.9159 11.7037,7.24576 16.974,12.49604 11.0537,11.01157 17.1617,23.38483 18.7553,37.99307 0.2458,2.25278 0.3555,58.68012 0.3555,182.80508 v 179.54644 h -1.6779 -1.6779 z"
     id="path90"
     transform="translate(0,-256)" />
  <path
     style="fill:#000000;stroke-width:0.671152"
     d="m 35.877482,1451.3519 c -2.382915,-12.8261 -3.977491,-26.6078 -4.722684,-40.8174 -0.445528,-8.4955 -0.686227,-126.7011 -0.690407,-339.0547 l -0.0064,-326.01219 h 3.691337 3.691337 v 357.05299 c 0,196.3791 -0.09803,357.0529 -0.217853,357.0529 -0.119819,0 -0.90521,-3.6997 -1.745313,-8.2216 z"
     id="path92"
     transform="translate(0,-256)" />
  <path
     style="fill:#000000;stroke-width:0.671152"
     d=""
     id="path94"
     transform="translate(0,-256)" />
  <path
     style="fill:#000000;stroke-width:0.671152"
     d="m 1237.6092,1666.357 c 25.385,-10.3428 28.7467,-11.8739 39.7116,-18.0868 47.0286,-26.647 96.6669,-75.4239 123.9618,-121.8106 7.7025,-13.0902 12.9603,-24.9673 18.1557,-41.0134 6.7754,-20.9256 9.1009,-37.4814 10.9405,-77.8869 1.1793,-25.9028 1.1793,-250.1601 0,-282.2195 -1.6813,-45.7062 -3.7583,-66.208 -7.2575,-71.6404 -2.0887,-3.2425 -11.2866,-6.4228 -24.1,-8.333 -8.1953,-1.2217 -40.7989,-1.2217 -48.9941,0 -14.0829,2.0994 -22.5994,5.3246 -24.2044,9.166 -4.0263,9.6362 -7.7509,71.991 -9.6818,162.0841 -0.3837,17.9029 -0.9925,46.2927 -1.3529,63.0883 -0.7778,36.2518 -1.8419,68.6578 -2.9973,91.2767 -0.7209,14.1136 -0.8531,-5.9687 -0.933,-141.7479 -0.067,-114.0547 0.1157,-159.1834 0.655,-161.7477 2.325,-11.054 11.0659,-20.268 21.8343,-23.0161 3.5578,-0.9079 9.4247,-1.0269 42.6182,-0.864 38.4861,0.1889 38.4931,0.1892 42.3444,1.7446 8.6807,3.5057 15.2324,10.2923 18.1029,18.7518 l 1.5355,4.5252 0.2003,162.7544 c 0.1322,107.4193 -0.041,167.7209 -0.508,177.3622 -2.2994,47.4251 -13.4318,87.1243 -35.4265,126.3342 -4.8297,8.6099 -17.6836,27.5266 -24.4995,36.0553 -34.7757,43.5145 -78.4011,75.9429 -126.3466,93.9182 -9.4865,3.5566 -31.0736,9.9747 -33.4341,9.9404 -0.8062,-0.012 8.0478,-3.8976 19.6755,-8.6351 z"
     id="path96"
     transform="translate(0,-256)" />
  <path
     style="fill:#000000;stroke-width:0.671152"
     d="m 849.6832,1618.0716 v -60.9589 l 105.20311,-0.4551 c 201.11779,-0.87 244.55729,-2.6438 264.64489,-10.8061 18.5442,-7.5352 54.4723,-41.9576 73.59,-70.5059 5.8117,-8.6785 9.9557,-16.1756 11.5002,-20.8057 4.8619,-14.5748 8.7617,-77.7466 10.8345,-175.5063 2.225,-104.9437 2.5358,-115.871 4.4084,-155.0362 1.6023,-33.5121 3.8149,-59.1508 5.7771,-66.9436 1.3211,-5.2465 7.473,-8.1813 22.3723,-10.673 10.6904,-1.7878 42.3885,-1.7898 53.021,0 15.1494,2.5453 21.4406,5.6842 23.0879,11.5193 5.3468,18.9401 7.1268,83.6046 6.5675,238.5868 -0.3952,109.503 -0.879,127.2312 -4.2122,154.365 -3.2245,26.2492 -13.0911,54.2537 -27.4297,77.8536 -30.8092,50.7094 -86.1498,102.2078 -134.9154,125.5486 -5.1751,2.4769 -20.0389,8.7674 -33.0307,13.9789 l -23.6214,9.4753 -138.1263,0.3339 c -75.9694,0.1836 -156.47383,0.4819 -178.8987,0.6628 l -40.7725,0.3289 z"
     id="path98"
     transform="translate(0,-256)" />
  <path
     style="fill:#000000;stroke-width:0.671152"
     d="m 849.6832,1617.9607 v -61.0701 l 56.209,-0.013 c 70.01374,-0.017 189.8641,-1.0929 221.9836,-1.9934 53.0075,-1.4862 77.3267,-3.7101 89.5127,-8.1856 10.7153,-3.9354 25.3113,-15.0332 43.0805,-32.7555 23.5154,-23.4532 42.0209,-49.3304 45.2482,-63.2729 4.2106,-18.1902 7.8096,-81.8506 9.7413,-172.3075 1.7737,-83.0565 2.0714,-95.5807 2.704,-113.7603 1.9451,-55.8987 4.7958,-96.8928 7.4789,-107.5483 1.3211,-5.2465 7.473,-8.1813 22.3723,-10.673 10.6755,-1.7853 42.3938,-1.7899 52.9819,-0.01 13.1855,2.2194 20.0408,5.0162 22.1118,9.0209 6.0907,11.7782 8.1714,78.0147 7.5839,241.425 -0.3923,109.0862 -0.9291,128.6297 -4.2406,154.365 -3.0579,23.7651 -10.8248,47.554 -22.5698,69.1287 -21.3231,39.169 -62.9442,84.1874 -104.7693,113.3209 -19.76,13.7641 -33.7625,20.8897 -68.0054,34.6071 l -23.6174,9.461 -137.1236,0.3354 c -75.41793,0.1845 -155.9242,0.4836 -178.90277,0.6646 l -41.77923,0.3291 z"
     id="path100"
     transform="translate(0,-256)" />
  <path
     style="fill:#000000;stroke-width:0.671152"
     d="m 849.6832,1618.0867 v -60.9746 l 103.18965,-0.4581 c 186.74705,-0.8291 235.92525,-2.4415 259.66825,-8.514 9.7737,-2.4997 20.9809,-9.5823 35.8739,-22.6713 27.106,-23.8227 53.5517,-58.3539 57.2824,-74.7959 4.4133,-19.451 8.1499,-88.7271 10.0902,-187.0757 2.1572,-109.3415 4.2039,-160.0936 7.731,-191.7069 1.669,-14.9594 2.2822,-17.3188 5.0495,-19.4295 7.01,-5.3468 25.9227,-8.0899 51.5065,-7.4706 28.2913,0.6849 41.6858,4.6088 44.0573,12.9067 4.9906,17.4623 6.7444,72.8231 6.75,213.083 0.01,159.5793 -1.5272,184.4952 -13.4471,218.46 -6.5536,18.6739 -12.9527,31.3125 -25.1466,49.6653 -24.2288,36.4663 -61.1676,73.2645 -98.3022,97.9279 -19.4773,12.9361 -28.7089,17.5158 -62.8713,31.1897 l -23.6088,9.4497 -128.4071,0.3499 c -70.624,0.1924 -151.13408,0.5048 -178.91139,0.6943 l -50.50421,0.3446 z"
     id="path102"
     transform="translate(0,-256)" />
  <path
     style="fill:#000000;stroke-width:0.671152"
     d="m 849.6832,1617.9586 v -60.8525 l 99.83389,-0.4627 c 211.33691,-0.9794 251.82511,-2.6948 271.03641,-11.4829 26.6143,-12.1746 75.0043,-64.6769 84.1913,-91.3461 4.8539,-14.0904 8.8737,-83.9462 11.0426,-191.8952 2.5116,-125.0091 5.5264,-187.6789 9.8554,-204.8711 1.5842,-6.291 10.8079,-9.7526 30.9815,-11.6268 9.7761,-0.9082 36.4526,-0.4883 43.4037,0.6832 12.4834,2.104 19.7813,4.7648 22.2766,8.1222 3.5978,4.8406 5.6,23.1166 7.3131,66.7506 0.3913,9.9666 0.8747,64.7829 1.0742,121.8141 0.6296,179.9358 -0.8238,209.0674 -12.1314,243.1637 -6.5392,19.718 -13.5708,34.1349 -25.2677,51.8068 -12.6737,19.1477 -25.6614,34.8078 -44.5736,53.7456 -15.1424,15.1629 -25.8956,24.5687 -40.99,35.8541 -22.9162,17.1332 -38.5111,25.5272 -74.8181,40.2709 l -23.8259,9.6752 -64.095,0.4696 c -35.2523,0.2583 -116.1178,0.5965 -179.70103,0.7517 l -115.60597,0.282 z"
     id="path104"
     transform="translate(0,-256)" />
  <path
     style="fill:#000000;stroke-width:0.671152"
     d="m 1191.6352,1550.4274 c 16.4185,-4.6186 32.6201,-12.0077 46.0627,-21.0078 35.6771,-23.8866 60.7333,-59.6072 69.3176,-98.8205 1.3046,-5.9596 1.3158,-2.0993 0.023,7.861 -1.5555,11.9814 -2.7023,16.1103 -6.3935,23.0186 -13.906,26.026 -45.4725,60.7394 -70.2738,77.2796 -8.5558,5.7059 -14.5493,8.2362 -23.6687,9.9924 -6.5056,1.2528 -18.1772,2.5516 -15.067,1.6767 z"
     id="path106"
     transform="translate(0,-256)" />
  <path
     style="fill:#000000;stroke-width:0.671152"
     d="m 849.6832,1618.0009 v -61.1103 l 42.45038,-0.012 c 61.8021,-0.017 199.77502,-1.205 231.71532,-1.9943 61.9091,-1.53 85.7715,-4.0493 98.2506,-10.373 27.4314,-13.9005 75.6209,-67.134 82.8661,-91.5396 5.0826,-17.121 8.6631,-84.0528 11.1717,-208.838 2.1525,-107.0749 5.3886,-170.7356 9.5112,-187.108 1.1954,-4.7474 6.0192,-7.47 17.3316,-9.782 16.2685,-3.325 46.8197,-3.325 63.0883,0 9.9659,2.0368 14.7424,4.3071 16.896,8.0308 5.8897,10.1838 7.9147,65.3831 7.9133,215.7053 0,158.0488 -1.4353,182.3861 -12.7395,216.2532 -6.4918,19.4491 -13.6253,33.8544 -25.6873,51.8721 -12.5435,18.7368 -25.3507,34.0457 -44.3849,53.0544 -25.6342,25.6001 -52.09,45.7431 -77.1454,58.7373 -10.4682,5.429 -13.7302,6.8503 -41.549,18.1031 l -21.3249,8.6261 -104.1805,0.3726 c -57.2993,0.2049 -137.93105,0.5391 -179.18174,0.7426 l -75.00126,0.3701 z"
     id="path108"
     transform="translate(0,-256)" />
  <path
     style="fill:#000000;stroke-width:0.671152"
     d="m 849.6832,1681.1244 c 0,-1.1755 0.77372,-1.301 10.23507,-1.6601 5.62929,-0.2137 84.53162,-0.5009 175.33853,-0.6382 159.9159,-0.2418 164.8439,-0.2124 156.8436,0.9351 -17.8442,2.5595 -23.1223,2.6349 -184.5666,2.6349 -154.47937,0 -157.8506,-0.027 -157.8506,-1.2717 z"
     id="path110"
     transform="translate(0,-256)" />
  <path
     style="fill:#000000;stroke-width:0.671152"
     d="m 891.63021,1681.9392 c -21.77888,-0.1172 -40.051,-0.4108 -40.6047,-0.6523 -0.65099,-0.284 -0.0581,-0.6386 1.67788,-1.0036 1.47653,-0.3105 78.49125,-0.7029 171.14381,-0.8721 94.6874,-0.1728 167.1366,-0.055 165.439,0.2687 -8.4489,1.6118 -33.2455,2.0003 -142.2843,2.2293 -63.67552,0.1338 -133.5928,0.1473 -155.37169,0.03 z"
     id="path112"
     transform="translate(0,-256)" />
  <path
     style="fill:#000000;stroke-width:0.335576"
     d="m 811.15364,400.70967 v -1.96353 l 6.09416,-0.22074 c 3.35179,-0.12141 13.43166,-0.22227 22.39971,-0.22413 18.46301,-0.004 62.2112,-0.48462 90.97122,-0.99976 71.61827,-1.2828 105.82727,-3.51867 111.64527,-7.29703 2.6236,-1.70379 5.4628,-9.75785 7.1293,-20.22379 1.559,-9.7908 1.8645,-15.05136 1.8613,-32.04752 0,-16.94692 -0.2801,-21.66942 -1.8592,-31.71194 -1.6858,-10.72184 -4.6415,-18.89379 -7.338,-20.28819 -7.2751,-3.76211 -74.06104,-6.83453 -178.88947,-8.22963 -14.11936,-0.18791 -31.59868,-0.43486 -38.84293,-0.54879 l -13.17136,-0.20714 v -0.80365 -0.80366 l 108.64276,0.0879 108.6428,0.0879 2.5951,0.73989 c 6.2311,1.77654 10.4136,4.24521 14.6259,8.63292 3.9293,4.09276 6.1583,8.16462 7.6406,13.95727 0.6139,2.39881 0.6421,4.17878 0.6421,40.42938 v 37.9201 l -0.7732,2.82997 c -2.9778,10.89756 -10.8417,18.83501 -21.7104,21.91343 l -2.6846,0.76038 -108.81051,0.0869 -108.81055,0.0869 z"
     id="path114"
     transform="translate(0,-256)" />
  <path
     style="fill:#000000;stroke-width:0.083894"
     d="m 1206.3692,165.20924 v -3.77767 l 1.1535,-0.91478 c 5.1755,-4.10423 10.4207,-7.15169 16.1646,-9.39158 4.7684,-1.85948 9.9472,-3.13058 15.1489,-3.71823 3.2792,-0.37045 2.6837,-0.36059 23.721,-0.39305 l 19.9878,-0.0308 v 1.84364 1.84363 l -0.3566,0.0435 c -0.1961,0.024 -1.3947,0.0839 -2.6636,0.13316 -13.6309,0.52948 -28.8317,1.5295 -37.7104,2.48086 -9.7428,1.04396 -15.1884,2.14003 -18.1199,3.64718 -5.2787,2.71385 -11.6587,7.02084 -15.7733,10.64807 -0.5075,0.44745 -1.0644,0.93734 -1.2374,1.08864 l -0.3146,0.27511 z"
     id="path116"
     transform="translate(0,-256)" />
  <path
     style="fill:#000000;stroke-width:0.041947"
     d="m 1182.6827,217.2078 c -0.03,-0.19429 -0.1312,-1.51116 -0.2022,-2.63218 -0.071,-1.12837 -0.071,-6.11949 3e-4,-7.25683 0.1205,-1.91367 0.2257,-3.06402 0.4315,-4.71904 1.4025,-11.27936 5.8137,-21.57528 13.1551,-30.70521 1.8574,-2.30987 3.5796,-4.2026 5.9026,-6.487 0.759,-0.7464 1.3961,-1.35709 1.4157,-1.35709 0.02,0 0.036,1.78373 0.036,3.96384 v 3.96385 l -0.4571,0.49302 c -3.3655,3.62994 -6.2533,7.82345 -8.4565,12.28014 -3.1082,6.287 -4.9356,13.07709 -5.6392,20.95253 -0.4107,4.59689 -0.3888,8.5756 0.062,11.19985 0.034,0.1961 0.061,0.38015 0.061,0.40899 2e-4,0.0415 -0.6562,0.0524 -3.1422,0.0524 h -3.1423 z"
     id="path118"
     transform="translate(0,-256)" />
  <path
     style="fill:#000000;stroke-width:0.118644"
     d="m 1215.1898,269.65067 c -8.5541,-8.56612 -16.0294,-16.10866 -16.6118,-16.7612 -9.1196,-10.21763 -14.2735,-21.57127 -15.7666,-34.73305 l -0.077,-0.68221 2.2035,-0.0264 c 1.2119,-0.0145 2.6118,-0.0279 3.111,-0.0297 l 0.9076,-0.003 0.3378,1.47688 c 2.6786,11.71278 13.6234,26.91073 39.5954,54.98229 1.0689,1.15525 1.9173,2.12653 1.8855,2.1584 -0.132,0.13193 -10.5503,-11.2662 -16.0567,-17.56672 -7.9313,-9.07516 -12.8021,-15.37643 -18.4998,-23.93303 -1.1611,-1.74367 -2.1569,-3.14201 -2.2129,-3.1074 -0.1268,0.0784 -0.12,5.36678 0.014,10.5489 0.1274,4.94568 0.2382,5.41522 1.6786,7.11865 0.8027,0.94934 11.3891,11.68736 24.367,24.71602 5.8077,5.83035 10.6029,10.67775 10.6561,10.77199 0.053,0.0942 0.08,0.27782 0.059,0.40795 -0.028,0.17971 -3.7775,-3.5087 -15.5903,-15.33815 z"
     id="path120"
     transform="translate(0,-256)" />
  <path
     style="fill:#000000;stroke-width:0.118644"
     d="m 1203.4902,167.94513 c -0.042,-4.41474 -0.241,-3.7611 1.6549,-5.42253 l 1.2161,-1.06569 v 3.74558 3.74557 l -1.4176,1.39925 -1.4177,1.39925 z"
     id="path122"
     transform="translate(0,-256)" />
  <path
     style="fill:#000000;stroke-width:0.118644"
     d="m 1282.5839,148.83862 v -1.83898 h 24.3813 24.3814 v 1.11604 1.11605 l -1.0975,0.0661 c -0.6036,0.0363 -3.9538,0.12325 -7.4449,0.19314 -6.3557,0.12725 -17.4407,0.40655 -21.1186,0.5321 -1.0767,0.0368 -4.4136,0.14665 -7.4153,0.2442 -3.0017,0.0975 -6.6856,0.22967 -8.1864,0.2936 -1.5009,0.0639 -2.9024,0.11635 -3.1144,0.1165 l -0.3856,2.7e-4 z"
     id="path124"
     transform="translate(0,-256)" />
  <path
     style="fill:#000000;stroke-width:0.118644"
     d="m 1561.9437,147.53354 v -0.5339 h 53.8644 53.8644 v 0.5339 0.53389 h -53.8644 -53.8644 z"
     id="path126"
     transform="translate(0,-256)" />
  <path
     style="fill:#000000;stroke-width:0.474576"
     d=""
     id="path128"
     transform="translate(0,-256)" />
  <path
     style="fill:#000000;stroke-width:0.474576"
     d="m 1069.0752,740.5707 124.339,-124.35452 0.1393,3.60419 0.1394,3.60419 -3.0614,3.39883 c -1.6838,1.86936 -55.6641,56.14798 -119.9563,120.61917 l -116.89487,117.22034 -4.52206,0.13117 -4.52207,0.13116 z"
     id="path130"
     transform="translate(0,-256)" />
  <path
     style="fill:#000000;stroke-width:0.083894"
     d="m 819.05106,995.90617 -5.8e-4,-5.579 34.29172,-34.29164 34.29172,-34.29164 h 3.79841 3.79841 l -0.0232,1.20368 -0.0232,1.20367 -9.52071,9.63963 c -13.03119,13.19394 -19.91628,20.17577 -29.03073,29.43861 -13.09089,13.30404 -17.25712,17.54532 -25.95896,26.42662 -4.61135,4.70645 -9.11282,9.29336 -10.00327,10.19312 l -1.619,1.63598 -5.8e-4,-5.57903 z"
     id="path132"
     transform="translate(0,-256)" />
  <path
     style="fill:#000000;stroke-width:0.167788"
     d="m 895.31393,922.83277 0.10184,-1.09062 h -3.84125 -3.84126 l 28.39913,-28.39813 28.39913,-28.39813 3.39652,-0.0457 c 1.86809,-0.0252 3.9971,-0.091 4.73115,-0.14634 l 1.33463,-0.10061 -5.52933,5.62181 c -7.81092,7.94156 -53.13512,53.64836 -53.19929,53.64836 -0.0292,0 -0.007,-0.49078 0.0487,-1.09062 z"
     id="path134"
     transform="translate(0,-256)" />
  <path
     style="fill:#000000;stroke-width:0.167788"
     d="m 730.91842,1085.6988 v -7.1273 l 44.04436,-44.0441 44.04436,-44.04416 v 5.50369 5.50367 l -13.38449,13.7079 c -20.65828,21.1575 -36.06821,37.0579 -52.47475,54.1449 -5.18639,5.4015 -12.87724,13.5074 -17.51388,18.4591 -2.15902,2.3058 -4.10326,4.3793 -4.32055,4.6079 l -0.39505,0.4157 z"
     id="path136"
     transform="translate(0,-256)" />
  <path
     style="fill:#000000;stroke-width:0.335576"
     d="m 856.74884,1253.266 c -4.429,-0.8765 -8.59233,-2.6856 -12.5841,-5.4681 -1.38537,-0.9657 -23.92971,-23.2683 -61.78695,-61.1244 -54.27511,-54.2736 -59.78925,-59.8864 -61.65809,-62.761 -3.52541,-5.4226 -5.08061,-10.6196 -5.08061,-16.9776 0,-9.1232 3.07174,-15.8015 11.0618,-24.0493 l 4.0097,-4.1391 0.0101,7.0471 0.0101,7.0471 -4.72891,5.2014 c -5.37163,5.9084 -8.68671,9.9208 -8.68079,10.5067 0.0211,2.0812 9.83334,14.212 24.47095,30.2532 43.99353,48.2121 99.14609,100.0184 115.96262,108.9269 3.31882,1.7582 3.80891,1.8201 5.5676,0.7041 6.04223,-3.8344 32.87166,-28.4306 75.97838,-69.6541 l 9.73171,-9.3066 0.093,5.1315 0.093,5.1316 -32.97948,33.0007 c -18.13873,18.1503 -33.96106,33.7473 -35.16074,34.6598 -2.85985,2.1754 -7.55676,4.4905 -10.90623,5.3756 -3.45253,0.9124 -10.07808,1.1565 -13.42304,0.4945 z"
     id="path138"
     transform="translate(0,-256)" />
  <path
     style="fill:#000000;stroke-width:0.335576"
     d="m 1036.0842,1088.9816 0.091,-4.1947 17.9405,-17.6178 c 32.0527,-31.476 71.5976,-70.60033 105.9611,-104.83417 l 33.6513,-33.52429 v 2.875 c 0,1.61953 0.1467,2.92389 0.3358,2.98694 0.1847,0.0616 -35.3057,35.75008 -78.8676,79.30782 l -79.2033,79.1959 z"
     id="path140"
     transform="translate(0,-256)" />
  <path
     style="fill:#000000;stroke-width:0.083894"
     d="m 1818.6336,674.00884 v -55.95731 h 1.8469 1.8469 l -0.029,54.4682 c -0.026,49.73987 -0.041,54.58835 -0.1663,55.85244 -0.076,0.76134 -0.1389,1.43144 -0.1404,1.48912 0,0.0803 -0.3956,0.10487 -1.6806,0.10487 h -1.6778 z"
     id="path142"
     transform="translate(0,-256)" />
  <path
     style="fill:#000000;stroke-width:0.083894"
     d="m 1760.0138,780.9285 c 0,-0.0389 0.6807,-0.0964 1.5126,-0.12758 4.7809,-0.17949 9.7959,-1.04406 14.0021,-2.41392 6.0287,-1.96342 11.6113,-5.1877 17.0517,-9.84824 1.6741,-1.43414 4.6069,-4.30041 6.3106,-6.16735 0.6965,-0.76321 5.4285,-6.22666 10.5156,-12.141 l 9.2493,-10.75334 v -4.74267 -4.74267 h 1.636 1.6359 l -3e-4,0.27265 c -5e-4,0.46395 -0.4947,3.71956 -0.7995,5.26643 -2.1704,11.01498 -7.3197,21.01918 -15.3487,29.82018 -1.1894,1.30374 -2.579,2.73744 -2.6167,2.69974 -0.031,-0.0314 0.2676,-8.57427 0.3421,-9.7707 0.021,-0.33829 0,-0.60157 -0.036,-0.58726 -0.041,0.0143 -1.0817,1.13962 -2.313,2.5008 -3.6057,3.98621 -7.4168,7.70683 -10.085,9.84549 -8.3976,6.73097 -16.6347,9.90095 -28.1477,10.83243 -1.7551,0.14201 -2.9087,0.16461 -2.9087,0.057 z"
     id="path144"
     transform="translate(0,-256)" />
  <path
     style="fill:#000000;stroke-width:0.059322"
     d="m 1818.5783,606.62288 v -11.38983 h 1.8687 1.8686 v 11.38983 11.38983 h -1.8686 -1.8687 z"
     id="path146"
     transform="translate(0,-256)" />
  <path
     style="fill:#000000;stroke-width:0.059322"
     d="m 1818.5792,580.91414 v -14.26695 h 1.8687 1.8686 v 14.26695 14.26694 h -1.8686 -1.8687 z"
     id="path148"
     transform="translate(0,-256)" />
  <path
     style="fill:#000000;stroke-width:0.0209735"
     d="m 1689.0332,147.50533 v -0.54531 h 9.522 9.522 v 0.54531 0.54531 h -9.522 -9.522 z"
     id="path150"
     transform="translate(0,-256)" />
  <path
     style="fill:#000000;stroke-width:0.0209735"
     d="m 1327.4964,149.40514 c 0,-0.005 0.5279,-0.0239 1.1623,-0.0424 1.1366,-0.0331 1.6877,-0.0565 2.2651,-0.0961 0.1615,-0.0111 0.3243,-0.0202 0.3618,-0.0204 l 0.068,-2.1e-4 v -1.13246 -1.13246 l -1.9348,-0.005 c -1.0641,-0.003 2.3525,-0.008 7.5924,-0.0106 l 9.5273,-0.005 v 1.0464 1.0464 l -0.3828,0.0127 c -0.2105,0.007 -1.2841,0.0271 -2.3857,0.0447 -3.5888,0.0573 -10.0686,0.17758 -14.1047,0.26184 -2.1934,0.0458 -2.1815,0.0456 -2.169,0.0331 z"
     id="path152"
     transform="translate(0,-256)" />
  <path
     style="fill:#000000;stroke-width:0.0104868"
     d="m 1705.1828,148.05673 2.9022,-0.003 v -0.55054 -0.55054 h 1.8614 1.8614 v 0.5558 0.5558 l -4.7636,-0.003 c -3.2772,-0.002 -3.858,-0.003 -1.8614,-0.005 z"
     id="path154"
     transform="translate(0,-256)" />
  <path
     style="fill:#000000;stroke-width:0.0209735"
     d="m 1677.3219,148.05313 c 2.1484,-0.003 5.6641,-0.003 7.8126,0 2.1485,0.003 0.3906,0.005 -3.9063,0.005 -4.297,0 -6.0548,-0.002 -3.9063,-0.005 z"
     id="path156"
     transform="translate(0,-256)" />
  <path
     style="fill:#000000;stroke-width:0.949153"
     d="m 852.10545,1251.7999 c -2.0018,-0.7652 -5.63231,-2.8673 -8.0678,-4.6715 -2.43548,-1.8042 -30.99256,-29.8972 -63.46017,-62.4287 -66.96979,-67.1017 -64.40222,-63.9821 -64.30638,-78.1313 0.0431,-6.3619 0.48013,-8.4398 2.69508,-12.8135 2.21034,-4.3647 56.37961,-58.9706 330.49092,-333.15446 180.316,-180.36375 327.8473,-328.35319 327.8473,-328.86544 0,-0.51224 -41.3799,-42.36902 -91.9553,-93.01507 l -91.9553,-92.08371 -3.9271,-8.0678 c -5.1633,-10.60748 -7.0691,-19.77501 -6.4406,-30.98087 0.912,-16.25939 7.3467,-29.9726 19.7566,-42.10387 7.4111,-7.24479 14.1559,-11.50686 23.7634,-15.01634 l 6.9617,-2.54298 97.0508,-0.26308 97.0509,-0.26308 V 424.34314 701.28807 L 1154.4908,974.31639 C 925.2996,1203.4318 880.53259,1247.7663 876.15187,1249.966 c -6.39328,3.2103 -18.10765,4.1038 -24.04642,1.8339 z"
     id="path158"
     transform="translate(0,-256)" />
</svg>
