<?xml version="1.0" encoding="UTF-8" standalone="no"?>
<svg
   xmlns:dc="http://purl.org/dc/elements/1.1/"
   xmlns:cc="http://creativecommons.org/ns#"
   xmlns:rdf="http://www.w3.org/1999/02/22-rdf-syntax-ns#"
   xmlns:svg="http://www.w3.org/2000/svg"
   xmlns="http://www.w3.org/2000/svg"
   xmlns:sodipodi="http://sodipodi.sourceforge.net/DTD/sodipodi-0.dtd"
   xmlns:inkscape="http://www.inkscape.org/namespaces/inkscape"
   version="1.1"
   id="svg286"
   width="512"
   height="512"
   viewBox="0 0 512 512"
   sodipodi:docname="index-food4.svg"
   inkscape:version="1.0.2 (e86c870879, 2021-01-15)">
  <metadata
     id="metadata292">
    <rdf:RDF>
      <cc:Work
         rdf:about="">
        <dc:format>image/svg+xml</dc:format>
        <dc:type
           rdf:resource="http://purl.org/dc/dcmitype/StillImage" />
        <dc:title></dc:title>
      </cc:Work>
    </rdf:RDF>
  </metadata>
  <defs
     id="defs290" />
  <sodipodi:namedview
     pagecolor="#ffffff"
     bordercolor="#666666"
     borderopacity="1"
     objecttolerance="10"
     gridtolerance="10"
     guidetolerance="10"
     inkscape:pageopacity="0"
     inkscape:pageshadow="2"
     inkscape:window-width="1280"
     inkscape:window-height="1051"
     id="namedview288"
     showgrid="false"
     inkscape:zoom="1.6464844"
     inkscape:cx="256"
     inkscape:cy="256"
     inkscape:window-x="1920"
     inkscape:window-y="0"
     inkscape:window-maximized="0"
     inkscape:current-layer="g294" />
  <g
     inkscape:groupmode="layer"
     inkscape:label="Image"
     id="g294">
    <path
       style="fill:#000000"
       d="M 115.51097,503.73951 C 106.22284,500.4476 97.660969,491.9664 93.733782,482.1675 c -1.587516,-3.96108 -1.748266,-13.09406 -2.046979,-116.29866 -0.324169,-112 -0.324169,-112 -6.5,-114.91181 -7.900008,-3.72474 -19.088315,-14.84577 -22.935404,-22.7975 -5.9759,-12.35187 -5.794743,-8.63514 -5.505349,-112.95137 0.264923,-95.495561 0.264923,-95.495561 2.958477,-99.02671 1.481454,-1.942133 4.328487,-4.306977 6.326741,-5.25521 4.219723,-2.0023899 11.274489,-2.2522703 14.639737,-0.518541 2.964697,1.527372 7.660891,5.857699 9.176024,8.461148 0.837178,1.438519 1.304314,19.847957 1.663944,65.574588 0.5,63.574585 0.5,63.574585 2.982824,67.196705 6.261983,9.13545 19.959463,10.61842 27.299183,2.95558 5.83097,-6.08768 5.71799,-4.68014 5.71799,-71.234592 0,-58.865439 0.0714,-61.211994 1.97736,-64.947904 5.97594,-11.713818 22.41891,-12.433906 30.03982,-1.315536 2.48282,3.622268 2.48282,3.622268 2.98282,67.196713 0.35963,45.726519 0.82677,64.135919 1.66394,65.574439 1.51926,2.61053 6.21367,6.93486 9.19806,8.47294 3.20048,1.64944 11.37907,1.47282 14.826,-0.32019 3.84408,-1.99958 6.91863,-5.46704 8.76427,-9.88428 1.33946,-3.20576 1.54773,-11.89601 1.54773,-64.579061 0,-60.874835 0,-60.874835 2.32022,-65.282118 6.03976,-11.4725808 22.20382,-12.1132445 29.69696,-1.177042 2.48282,3.623669 2.48282,3.623669 2.48282,100.196711 0,96.57304 0,96.57304 -2.33693,103.33927 -4.62487,13.39059 -14.44423,24.64384 -26.81999,30.7364 -6.30974,3.10628 -6.30974,3.10628 -6.57641,116.30183 -0.26667,113.19554 -0.26667,113.19554 -3.1887,118.46961 -3.40373,6.1435 -10.43859,13.05071 -16.68593,16.38314 -4.25121,2.26767 -5.24176,2.35025 -30.89204,2.57557 -22.1331,0.19442 -27.24155,-0.03 -31,-1.36211 z m 248.58415,0.0538 c -5.79066,-2.12147 -13.8595,-8.61498 -17.46063,-14.05171 -6.26024,-9.45123 -6.12352,-7.48613 -6.12352,-88.01544 0,-73.27968 0,-73.27968 -33.08765,-73.5685 -33.08765,-0.28882 -33.08765,-0.28882 -35.52714,-3.12613 -2.43949,-2.83732 -2.43949,-2.83732 -2.15272,-122.5 0.28676,-119.662683 0.28676,-119.662683 2.52129,-127.662683 3.05991,-10.955002 9.2021,-23.055066 16.12599,-31.768046 15.92635,-20.041636 36.5947,-31.314036 61.79745,-33.7039746 13.98099,-1.3257966 76.43481,-1.2990458 82.22283,0.03522 5.79987,1.3369936 9.69777,4.2281306 12.13109,8.9978466 1.96629,3.854235 1.98332,6.148213 1.72736,232.665777 -0.2585,228.77317 -0.2585,228.77317 -3.21327,234.60997 -3.77525,7.45759 -11.82215,14.87481 -19.08608,17.5926 -5.08176,1.90133 -7.59526,2.06484 -30.74666,2.00014 -19.27179,-0.0539 -26.13516,-0.40849 -29.12834,-1.50507 z"
       id="path298" />
  </g>
</svg>
