<?xml version="1.0" encoding="UTF-8" standalone="no"?>
<svg
   xmlns:dc="http://purl.org/dc/elements/1.1/"
   xmlns:cc="http://creativecommons.org/ns#"
   xmlns:rdf="http://www.w3.org/1999/02/22-rdf-syntax-ns#"
   xmlns:svg="http://www.w3.org/2000/svg"
   xmlns="http://www.w3.org/2000/svg"
   xmlns:sodipodi="http://sodipodi.sourceforge.net/DTD/sodipodi-0.dtd"
   xmlns:inkscape="http://www.inkscape.org/namespaces/inkscape"
   version="1.1"
   id="svg10"
   width="512"
   height="512"
   viewBox="0 0 512 512"
   sodipodi:docname="index-food1.svg"
   inkscape:version="1.0.2 (e86c870879, 2021-01-15)">
  <metadata
     id="metadata16">
    <rdf:RDF>
      <cc:Work
         rdf:about="">
        <dc:format>image/svg+xml</dc:format>
        <dc:type
           rdf:resource="http://purl.org/dc/dcmitype/StillImage" />
        <dc:title></dc:title>
      </cc:Work>
    </rdf:RDF>
  </metadata>
  <defs
     id="defs14" />
  <sodipodi:namedview
     pagecolor="#ffffff"
     bordercolor="#666666"
     borderopacity="1"
     objecttolerance="10"
     gridtolerance="10"
     guidetolerance="10"
     inkscape:pageopacity="0"
     inkscape:pageshadow="2"
     inkscape:window-width="1280"
     inkscape:window-height="1051"
     id="namedview12"
     showgrid="false"
     inkscape:zoom="1.6796875"
     inkscape:cx="256"
     inkscape:cy="291.61345"
     inkscape:window-x="1920"
     inkscape:window-y="0"
     inkscape:window-maximized="0"
     inkscape:current-layer="g18" />
  <g
     inkscape:groupmode="layer"
     inkscape:label="Image"
     id="g18">
    <path
       style="fill:#000000"
       d="m 69.882998,457.54417 c -0.825,-0.16164 -4.875,-0.83444 -9,-1.49511 -10.42756,-1.67011 -21.47256,-6.14353 -28.14815,-11.4005 -6.66314,-5.24716 -12.85185,-16.18437 -12.85185,-22.71286 v -3.86564 H 140.883 h 121 v 2.8185 c 0,5.19646 -3.00515,13.00842 -6.89931,17.9349 -7.23997,9.15925 -19.80642,15.19567 -37.04312,17.79404 -7.6721,1.15654 -23.07087,1.41905 -78.05757,1.33066 -37.675,-0.0606 -69.175002,-0.24235 -70.000002,-0.40399 z m 251.077512,-6.22411 c -0.60675,-3.7125 -1.97184,-14.175 -3.03353,-23.25 -1.0617,-9.075 -3.77368,-30.9 -6.02664,-48.5 -2.25296,-17.6 -4.73106,-37.175 -5.5069,-43.5 -0.77584,-6.325 -4.60266,-36.7 -8.50405,-67.5 -3.90139,-30.8 -7.9507,-62.975 -8.99847,-71.5 -1.04777,-8.525 -3.05319,-24.34915 -4.45648,-35.16479 -1.4033,-10.81563 -2.55145,-19.92813 -2.55145,-20.25 0,-0.32186 37.27622,-0.58521 82.83605,-0.58521 h 82.83605 l 1.8126,-6.25 c 0.99693,-3.4375 2.82095,-9.85 4.05339,-14.25 1.23243,-4.4 4.28841,-14.975 6.79106,-23.499996 2.50264,-8.52501 7.96975,-27.404861 12.14912,-41.955239 4.17938,-14.550378 7.74818,-26.604553 7.93068,-26.787055 0.59804,-0.598031 17.59105,5.114965 17.59105,5.914052 0,0.428457 -4.76902,17.327588 -10.59782,37.553625 -5.8288,20.226027 -12.73397,44.199613 -15.34484,53.274613 -2.61086,9.075 -4.56529,16.8375 -4.34316,17.25 0.22212,0.4125 6.9023,0.75 14.84484,0.75 11.38784,0 14.44098,0.28269 14.44098,1.3371 0,1.29422 -3.64874,30.54203 -10.00053,80.1629 -1.68968,13.2 -4.40631,34.575 -6.03694,47.5 -1.63063,12.925 -5.66717,44.65 -8.97009,70.5 -3.30291,25.85 -7.81099,61.4 -10.01794,79 -2.20696,17.6 -4.23764,33.0125 -4.51263,34.25 l -0.49997,2.25 h -67.3906 -67.3906 z M 23.520258,395.60525 C 7.3702678,389.84794 3.5642378,364.0085 17.010528,351.41032 c 1.85486,-1.73786 5.17247,-3.67223 7.37247,-4.2986 2.915,-0.82993 35.07797,-1.05785 118.573342,-0.84025 l 114.57334,0.29859 4.12138,2.72761 c 6.31749,4.18103 9.48501,10.43061 10.02637,19.78222 0.58995,10.19101 -1.37143,16.20955 -7.06106,21.66706 -2.32835,2.23336 -5.76302,4.5697 -7.63259,5.19188 -2.452,0.816 -34.91591,1.119 -116.5,1.08734 -93.424562,-0.0363 -113.772792,-0.28346 -116.963522,-1.42092 z m -3.42954,-75.34518 c 1.45754,-15.16897 16.13502,-28.1826 36.79228,-32.62148 12.78073,-2.74636 24.887119,-3.13886 90.220932,-2.92505 73.54209,0.24066 78.39134,0.67443 93.77907,8.38863 11.81803,5.92463 19.35018,15.68556 20.66397,26.77848 l 0.61461,5.18941 H 140.89506 19.628538 Z"
       id="path22" />
  </g>
</svg>
