<?xml version="1.0" encoding="UTF-8" standalone="no"?>
<svg
   xmlns:dc="http://purl.org/dc/elements/1.1/"
   xmlns:cc="http://creativecommons.org/ns#"
   xmlns:rdf="http://www.w3.org/1999/02/22-rdf-syntax-ns#"
   xmlns:svg="http://www.w3.org/2000/svg"
   xmlns="http://www.w3.org/2000/svg"
   xmlns:sodipodi="http://sodipodi.sourceforge.net/DTD/sodipodi-0.dtd"
   xmlns:inkscape="http://www.inkscape.org/namespaces/inkscape"
   version="1.1"
   id="svg74"
   width="512"
   height="512"
   viewBox="0 0 512 512"
   sodipodi:docname="index-food2.svg"
   inkscape:version="1.0.2 (e86c870879, 2021-01-15)">
  <metadata
     id="metadata80">
    <rdf:RDF>
      <cc:Work
         rdf:about="">
        <dc:format>image/svg+xml</dc:format>
        <dc:type
           rdf:resource="http://purl.org/dc/dcmitype/StillImage" />
        <dc:title></dc:title>
      </cc:Work>
    </rdf:RDF>
  </metadata>
  <defs
     id="defs78" />
  <sodipodi:namedview
     pagecolor="#ffffff"
     bordercolor="#666666"
     borderopacity="1"
     objecttolerance="10"
     gridtolerance="10"
     guidetolerance="10"
     inkscape:pageopacity="0"
     inkscape:pageshadow="2"
     inkscape:window-width="1280"
     inkscape:window-height="1051"
     id="namedview76"
     showgrid="false"
     inkscape:zoom="1.6464844"
     inkscape:cx="256"
     inkscape:cy="256"
     inkscape:window-x="1920"
     inkscape:window-y="0"
     inkscape:window-maximized="0"
     inkscape:current-layer="g82" />
  <g
     inkscape:groupmode="layer"
     inkscape:label="Image"
     id="g82">
    <path
       style="fill:#000000"
       d="M 105.07992,442.11628 C 82.093429,436.86899 66.29893,413.83421 70.126738,391.1404 c 4.135678,-24.51908 27.491914,-41.73406 51.290012,-37.80389 34.13638,5.6375 49.74031,44.02219 29.22463,71.89076 -9.98087,13.55806 -29.10256,20.64621 -45.56146,16.88901 z m 292.10834,0.22008 c -13.18118,-2.58864 -25.74363,-12.35482 -31.89037,-24.7919 -3.67148,-7.42873 -3.71796,-7.67409 -3.71796,-19.6265 0,-11.97621 0.0396,-12.18386 3.75918,-19.70991 8.71587,-17.63537 28.52887,-28.0542 47.32787,-24.88776 29.85373,5.02845 46.89907,36.65733 34.16097,63.38819 -9.15209,19.20563 -29.32077,29.61828 -49.63969,25.62788 z M 1.0799256,237.41796 V 77.417964 H 201.8912 402.7025 l 18.20996,69.249996 c 10.01548,38.0875 18.5379,69.38782 18.93872,69.55627 0.40081,0.16845 16.70375,7.37801 36.22875,16.02124 l 35.5,15.71497 0.25637,74.72876 0.25636,74.72876 H 492.0863 472.07993 v -3.84004 c 0,-5.76591 -3.45569,-18.13756 -7.06785,-25.30349 -11.94925,-23.70532 -36.44065,-38.00833 -62.57272,-36.54253 -32.81968,1.84092 -58.49117,26.5188 -62.86941,60.43606 l -0.6777,5.25 h -78.90616 -78.90617 l -0.0174,-3.25 c -0.035,-6.54827 -3.05046,-17.46175 -7.1149,-25.75 -5.94943,-12.13223 -17.91409,-24.07115 -29.8677,-29.8035 -26.5898,-12.75113 -55.437644,-7.92888 -76.085011,12.71849 -11.280846,11.28084 -17.73451,24.52878 -19.484601,39.99753 l -0.68872,6.08748 H 24.450755 1.0799256 Z M 110.8623,208.90338 c 0.20892,-7.40906 -0.085,-10.51704 -1.12975,-11.9458 -1.36362,-1.86486 -1.63816,-1.78396 -7.98928,2.35396 -10.995528,7.16386 -17.15458,6.52019 -23.608933,-2.46734 -1.648121,-2.29496 -6.609596,-11.18141 -11.0255,-19.74765 -6.475923,-12.5624 -8.028916,-16.42934 -8.028916,-19.99193 0,-9.05806 7.26104,-12.83024 12.95789,-6.73174 1.51817,1.62521 4.511214,6.90448 6.651209,11.73172 6.613627,14.91851 9.824931,20.80121 11.526239,21.1146 0.918125,0.16913 4.936324,-2.75947 9.162015,-6.67758 13.089436,-12.13669 16.368146,-13.70991 31.449806,-15.09058 13.60465,-1.24544 21.73336,0.0836 33.17786,5.42446 18.98472,8.85975 25.15134,10.09816 39.83128,7.99911 11.93313,-1.70629 19.66963,-1.82004 22.55945,-0.33169 6.69282,3.44702 8.83398,9.42038 4.41469,12.31601 -1.24826,0.81789 -6.31076,2.50232 -11.25,3.74316 -9.19288,2.30945 -10.61538,2.35565 -45.62717,1.48177 -10.65925,-0.26605 -12.89251,3.17438 -12.06921,18.5932 l 0.4677,8.75909 50.62413,-0.25909 50.62412,-0.2591 v -55.5 -55.5 l -109.75001,-0.2544 -109.749999,-0.25441 v 56.01789 56.01788 l 33.25,-0.26348 33.249999,-0.26348 z m 92.77544,-41.97754 c -8.06524,-2.87311 -12.30367,-7.70174 -12.73459,-14.50788 l -0.28492,-4.5 25.36288,-0.26745 25.36286,-0.26745 -0.52206,4.63169 c -0.81369,7.21904 -6.40766,13.10481 -14.62435,15.38718 -5.18265,1.4396 -17.93781,1.17042 -22.55982,-0.47609 z M 128.3863,151.31379 c -4.65461,-1.3464 -9.88078,-6.74328 -11.38194,-11.7537 -2.48827,-8.30511 1.52582,-19.21642 8.4044,-22.84528 7.59444,-4.00653 20.49913,-0.53613 25.36869,6.82228 2.845,4.29908 3.41872,11.96856 1.36159,18.20172 -2.81288,8.52312 -13.08043,12.66208 -23.75274,9.57498 z m 73.69362,-11.49754 c 0,-0.95744 0.66517,-2.47582 1.47817,-3.37416 1.30854,-1.44593 1.25771,-2.21354 -0.44289,-6.68915 -1.06667,-2.80726 -1.66269,-6.11856 -1.34013,-7.44539 0.69685,-2.86648 4.15386,-6.88959 5.92016,-6.88959 2.41138,0 2.58466,2.15825 0.36313,4.52296 -2.32766,2.47767 -2.3214,2.86025 0.18456,11.28572 1.08755,3.65652 1.05362,4.71603 -0.22415,7 -1.77352,3.17005 -5.93885,4.28496 -5.93885,1.58961 z m 22.45426,0.52768 c -0.36508,-0.59071 0.2682,-2.06608 1.40729,-3.27858 l 2.07107,-2.20456 -2.06636,-5.60943 c -1.97654,-5.36558 -1.99262,-5.76484 -0.36981,-9.18465 1.80094,-3.7952 4.9905,-5.56181 6.79098,-3.76133 0.78146,0.78146 0.41679,1.79853 -1.30011,3.62609 -2.24313,2.3877 -2.30931,2.79323 -1.10369,6.76325 2.43621,8.02226 2.47596,10.36366 0.21435,12.62527 -2.28925,2.28925 -4.60235,2.70891 -5.64372,1.02394 z m -11.45425,-3.09723 c 0,-0.64419 0.75845,-2.00934 1.68544,-3.03365 1.58065,-1.74659 1.58034,-2.15566 -0.005,-6.57874 -0.92972,-2.59399 -1.68648,-5.61635 -1.68171,-6.71635 0.0139,-3.20665 3.74201,-8.5 5.98651,-8.5 2.59215,0 2.57954,2.317 -0.0318,5.84905 l -2.04652,2.76807 2.04652,4.77435 c 2.545,5.93725 2.54299,6.70766 -0.0261,9.97367 -2.09885,2.66836 -5.92734,3.61369 -5.92734,1.4636 z m 192.42292,81.29598 c 0.43814,-0.70892 -24.26253,-105.51813 -25.89753,-109.88771 -0.37083,-0.99105 -7.96045,-1.20636 -35.24899,-1 l -34.7764,0.26299 -0.25981,54.5 c -0.1429,29.975 -0.0445,55.0625 0.21861,55.75 0.37345,0.97573 10.89473,1.25 47.9508,1.25 26.1098,0 47.71579,-0.39387 48.01332,-0.87528 z"
       id="path86" />
  </g>
</svg>
