<?xml version="1.0" encoding="UTF-8" standalone="no"?>
<svg
   xmlns:dc="http://purl.org/dc/elements/1.1/"
   xmlns:cc="http://creativecommons.org/ns#"
   xmlns:rdf="http://www.w3.org/1999/02/22-rdf-syntax-ns#"
   xmlns:svg="http://www.w3.org/2000/svg"
   xmlns="http://www.w3.org/2000/svg"
   xmlns:sodipodi="http://sodipodi.sourceforge.net/DTD/sodipodi-0.dtd"
   xmlns:inkscape="http://www.inkscape.org/namespaces/inkscape"
   version="1.1"
   id="svg204"
   width="512"
   height="512"
   viewBox="0 0 512 512"
   sodipodi:docname="index-food3.svg"
   inkscape:version="1.0.2 (e86c870879, 2021-01-15)">
  <metadata
     id="metadata210">
    <rdf:RDF>
      <cc:Work
         rdf:about="">
        <dc:format>image/svg+xml</dc:format>
        <dc:type
           rdf:resource="http://purl.org/dc/dcmitype/StillImage" />
        <dc:title></dc:title>
      </cc:Work>
    </rdf:RDF>
  </metadata>
  <defs
     id="defs208" />
  <sodipodi:namedview
     pagecolor="#ffffff"
     bordercolor="#666666"
     borderopacity="1"
     objecttolerance="10"
     gridtolerance="10"
     guidetolerance="10"
     inkscape:pageopacity="0"
     inkscape:pageshadow="2"
     inkscape:window-width="1280"
     inkscape:window-height="1051"
     id="namedview206"
     showgrid="false"
     inkscape:zoom="1.6464844"
     inkscape:cx="256"
     inkscape:cy="256"
     inkscape:window-x="1920"
     inkscape:window-y="0"
     inkscape:window-maximized="0"
     inkscape:current-layer="g212" />
  <g
     inkscape:groupmode="layer"
     inkscape:label="Image"
     id="g212">
    <path
       style="fill:#000000"
       d="m 140.63506,505.36017 c -0.36568,-3.93465 -1.51073,-9.06609 -2.54455,-11.40321 -1.18309,-2.67458 -8.50978,-11.23367 -19.77054,-23.0961 -60.082246,-63.29249 -66.091385,-70.0185 -70.261772,-78.64384 -7.820482,-16.1746 -7.545445,-12.94131 -7.545445,-88.70294 0,-67.5 0,-67.5 2.220978,-71.65327 8.463815,-15.82751 30.80083,-15.98103 38.6322,-0.26552 2.646822,5.31148 2.646822,5.31148 2.646822,51.07995 0,45.76847 0,45.76847 -2.144287,46.91606 -4.30547,2.30422 -11.099299,9.4674 -13.641018,14.38263 -3.485023,6.73941 -3.775285,18.70347 -0.619817,25.5477 1.30705,2.83499 11.932279,15.34487 28.635152,33.71429 14.869517,16.35315 27.465227,31.09285 28.620747,33.49245 1.13507,2.35714 2.36551,6.19821 2.7343,8.53571 0.67054,4.25 0.67054,4.25 8.65627,4.25 7.98574,0 7.98574,0 7.3195,-4.75 -1.0488,-7.47751 -3.36732,-13.64747 -7.49179,-19.93686 -2.09669,-3.19723 -14.41889,-17.14757 -27.38267,-31.00076 -12.963779,-13.85319 -24.271582,-26.54334 -25.128449,-28.20034 -1.956314,-3.78309 -2.011153,-11.33494 -0.109021,-15.01326 2.286547,-4.42169 7.980741,-8.82663 12.368284,-9.5679 8.927506,-1.50829 8.080206,-2.21606 62.076816,51.85468 27.52514,27.56294 51.43166,52.00444 53.12559,54.31444 5.47119,7.46103 7.99619,15.35897 9.12043,28.52769 0.56243,6.58816 0.78388,13.84459 0.4921,16.12539 -0.29178,2.28081 -0.55337,7.85942 -0.58132,12.39692 -0.0508,8.25 -0.0508,8.25 -39.40722,8.25 -39.3564,0 -39.3564,0 -40.02129,-7.15391 z M 291.01275,491.5633 c 0,-23.06521 0.73917,-28.35082 5.32102,-38.04922 2.78267,-5.89008 7.94342,-11.39385 54.99921,-58.65485 45.65051,-45.84958 52.44518,-52.29953 56.203,-53.35165 11.10392,-3.10891 21.48543,4.93818 21.47061,16.64265 -0.003,2.67512 -0.64375,6.08602 -1.42303,7.57979 -0.77927,1.49376 -12.32717,14.42597 -25.66199,28.73823 -13.33482,14.31226 -25.52283,27.94009 -27.08446,30.28406 -3.63392,5.45444 -6.37126,12.84946 -7.22248,19.51177 -0.67077,5.25 -0.67077,5.25 7.27578,5.25 7.94654,0 7.94654,0 8.65646,-4.25 1.32144,-7.91091 4.72666,-12.89493 20.87466,-30.55302 42.50582,-46.48077 41.06418,-44.45485 41.05693,-57.69698 -0.004,-6.70325 -0.43249,-8.81698 -2.64555,-13.04015 -2.5812,-4.9257 -9.39489,-12.09152 -13.67587,-14.38263 -2.14429,-1.14759 -2.14429,-1.14759 -2.12233,-46.8624 0.0203,-42.19628 0.16319,-46.02269 1.85688,-49.71482 6.65036,-14.49736 24.02448,-17.69192 35.23735,-6.47905 3.71173,3.71173 4.91488,5.78184 5.85576,10.07531 0.86716,3.95699 1.08437,22.80623 0.81133,70.40374 -0.4165,72.60456 -0.13383,69.50206 -7.75044,85.06591 -4.45017,9.09354 -4.17604,8.77944 -50.56257,57.93409 -17.12788,18.15 -32.61541,34.575 -34.41671,36.5 -4.58865,4.90375 -6.78871,10.32626 -7.60738,18.75 -0.7046,7.25 -0.7046,7.25 -40.07539,7.25 -39.37079,0 -39.37079,0 -39.37079,-20.95078 z m -179,-276.04922 c 0,-89 0,-89 15.25,-89.00238 15.25,-0.002 15.25,-0.002 18.221,-5.75 14.02374,-27.130012 50.2327,-32.93327 72.5666,-11.63033 3.27932,3.12793 5.9624,5.10349 5.9624,4.39013 0,-0.71336 -3.00683,-17.094356 -6.68184,-36.402215 -5.71667,-30.03433 -6.69169,-36.766349 -6.75,-46.605199 -0.0627,-10.578307 0.15009,-11.940809 2.65491,-16.999999 3.03146,-6.1228709 7.51852,-9.7592528 13.17494,-10.677163 2.00781,-0.3258219 3.89119,-0.9817511 4.18529,-1.4576205 0.73679,-1.19215807 5.15886,-1.09142287 5.9167,0.1347831 0.33992,0.55 1.60398,1.004396 2.80902,1.0097689 4.08831,0.018228 12.74433,4.9116966 17.71467,10.0145505 9.35458,9.603991 16.60605,24.363919 22.54851,45.896138 1.88529,6.831251 3.4278,12.775714 3.4278,13.209916 0,0.434202 -2.9731,-1.46087 -6.60688,-4.211271 -7.81752,-5.917064 -16.25606,-10.896587 -18.48813,-10.909719 -2.0009,-0.01177 -4.90499,3.115587 -4.90499,5.282096 0,0.898699 2.67171,3.448322 5.93714,5.66583 13.86356,9.41457 28.93835,26.366699 31.60556,35.541574 0.86689,2.98201 1.43692,7.255 1.26673,9.49555 -0.30943,4.07371 -0.30943,4.07371 -6.87214,-0.87588 -14.44174,-10.89195 -20.32807,-12.993926 -22.90484,-8.17918 -1.50777,2.8173 -0.38292,4.6652 4.62702,7.60121 2.46263,1.44319 7.5389,5.51196 11.28062,9.0417 6.80311,6.41771 6.80311,6.41771 18.43151,6.41771 11.6284,0 11.6284,0 11.6284,-8.2899 0,-11.2596 1.93246,-18.08216 9.12338,-32.210094 8.45702,-16.615441 9.24658,-19.005732 7.27293,-22.017911 -1.98564,-3.030462 -1.00834,-6.298899 2.25436,-7.539373 3.26815,-1.24255 19.50968,-1.212447 22.80986,0.04228 3.47066,1.319545 4.22783,3.750497 2.24451,7.20623 -1.9661,3.425725 -1.84635,3.805214 6.2508,19.808774 7.84962,15.514342 10.04416,22.966004 10.04416,34.105334 0,8.89466 0,8.89466 15.5,8.89466 15.5,0 15.5,0 15.5,89 0,89 0,89 -143.5,89 -143.5,0 -143.5,0 -143.5,-89 z m 259,0 c 0,-62 0,-62 -115.5,-62 -115.5,0 -115.5,0 -115.5,62 0,62 0,62 115.5,62 115.5,0 115.5,0 115.5,-62 z M 167.74722,89.426035 C 154.8542,86.388475 146.16274,75.8447 143.22409,59.676559 c -0.93831,-5.162473 -0.93831,-5.162473 4.37595,-5.162473 18.98449,0 31.25671,8.585103 35.73698,25 3.27974,12.016399 3.69883,11.013612 -4.55522,10.899549 -3.99798,-0.05525 -8.96354,-0.499668 -11.03458,-0.9876 z"
       id="path216" />
  </g>
</svg>
